<svg width="15" height="15" viewBox="0 0 15 15" fill="none" xmlns="http://www.w3.org/2000/svg">
<g clip-path="url(#clip0)">
<path d="M14.6064 11.5718L11.5703 9.54708C11.1851 9.2922 10.6686 9.37607 10.3838 9.73979L9.49938 10.8769C9.38573 11.0267 9.17913 11.0702 9.01471 10.9789L8.84648 10.8861C8.28881 10.5822 7.59493 10.2037 6.19688 8.80518C4.79884 7.40664 4.41965 6.71223 4.11568 6.15559L4.02344 5.98736C3.93084 5.82297 3.97349 5.61549 4.12341 5.50093L5.25973 4.61682C5.62331 4.33195 5.70729 3.81564 5.45271 3.43024L3.42801 0.394186C3.1671 0.0017252 2.64364 -0.116089 2.23973 0.126716L0.970159 0.889347C0.571253 1.12386 0.278592 1.50367 0.153542 1.94918C-0.303626 3.61493 0.0402969 6.48976 4.27518 10.7251C7.64393 14.0936 10.1518 14.9995 11.8756 14.9995C12.2723 15.0012 12.6674 14.9496 13.0504 14.846C13.496 14.7211 13.8759 14.4284 14.1102 14.0294L14.8736 12.7606C15.1168 12.3566 14.999 11.8328 14.6064 11.5718ZM14.4429 12.5041L13.6813 13.7737C13.513 14.0617 13.2398 14.2735 12.9189 14.3646C11.3811 14.7868 8.69451 14.4371 4.62885 10.3715C0.563198 6.3058 0.213533 3.61944 0.635726 2.08144C0.727002 1.76016 0.939021 1.48659 1.22738 1.31804L2.49694 0.556408C2.6722 0.450955 2.89939 0.502071 3.01261 0.672378L4.11246 2.32363L5.03558 3.70817C5.14613 3.87534 5.10981 4.0994 4.9521 4.2231L3.81552 5.10721C3.46963 5.37169 3.37086 5.85024 3.58381 6.23005L3.67406 6.39403C3.99353 6.97994 4.39071 7.70882 5.84074 9.15863C7.29078 10.6084 8.01944 11.0056 8.60508 11.325L8.76929 11.4155C9.14907 11.6285 9.62765 11.5297 9.89214 11.1838L10.7762 10.0472C10.9 9.88962 11.1239 9.85333 11.2912 9.96376L14.327 11.9885C14.4974 12.1016 14.5485 12.3289 14.4429 12.5041Z" fill="#999999"/>
<path d="M8.49953 2.50125C10.8453 2.50386 12.7463 4.40485 12.7489 6.75063C12.7489 6.88868 12.8608 7.00058 12.9989 7.00058C13.1369 7.00058 13.2488 6.88868 13.2488 6.75063C13.2459 4.12886 11.1213 2.00421 8.49953 2.00134C8.36147 2.00134 8.24957 2.11324 8.24957 2.2513C8.24957 2.38935 8.36147 2.50125 8.49953 2.50125Z" fill="#999999"/>
<path d="M8.49953 4.00113C10.0173 4.00291 11.2473 5.23291 11.2491 6.75073C11.2491 6.88878 11.3611 7.00068 11.4991 7.00068C11.6371 7.00068 11.749 6.88878 11.749 6.75073C11.747 4.95691 10.2933 3.50327 8.49953 3.50122C8.36147 3.50122 8.24957 3.61312 8.24957 3.75117C8.24957 3.88923 8.36147 4.00113 8.49953 4.00113Z" fill="#999999"/>
<path d="M8.49953 5.50088C9.18942 5.5017 9.7485 6.06078 9.74935 6.75071C9.74935 6.88876 9.86128 7.00066 9.9993 7.00066C10.1373 7.00066 10.2493 6.88876 10.2493 6.75071C10.2481 5.78482 9.46542 5.00206 8.49953 5.00098C8.36147 5.00098 8.24957 5.11287 8.24957 5.25093C8.24957 5.38899 8.36147 5.50088 8.49953 5.50088Z" fill="#999999"/>
</g>
<defs>
<clipPath id="clip0">
<rect width="15" height="15" fill="white"/>
</clipPath>
</defs>
</svg>
