<svg width="15" height="15" viewBox="0 0 15 15" fill="none" xmlns="http://www.w3.org/2000/svg">
<g clip-path="url(#clip0)">
<path d="M13.1688 1.79236H1.83426C0.822471 1.79236 0 2.61483 0 3.62662V11.3734C0 12.3852 0.822471 13.2076 1.83426 13.2076H13.1657C14.1775 13.2076 15 12.3852 15 11.3734V3.62973C15.0031 2.61793 14.1806 1.79236 13.1688 1.79236ZM14.1651 11.3734C14.1651 11.9227 13.7182 12.3696 13.1688 12.3696H1.83426C1.28492 12.3696 0.837989 11.9227 0.837989 11.3734V3.62973C0.837989 3.08038 1.28492 2.63345 1.83426 2.63345H13.1657C13.7151 2.63345 14.162 3.08038 14.162 3.62973V11.3734H14.1651Z" fill="#999999"/>
<path d="M9.45994 7.40383L13.1285 4.11395C13.2992 3.95876 13.3147 3.69495 13.1595 3.52115C13.0043 3.35045 12.7405 3.33493 12.5667 3.49011L7.50774 8.03077L6.52078 7.14933C6.51767 7.14623 6.51457 7.14312 6.51457 7.14002C6.49284 7.11829 6.47112 7.09967 6.44629 7.08105L2.43015 3.48701C2.25634 3.33182 1.99253 3.34734 1.83735 3.52115C1.68217 3.69495 1.69768 3.95876 1.87149 4.11395L5.58347 7.43176L1.88701 10.8923C1.71941 11.0506 1.7101 11.3144 1.86839 11.4851C1.95218 11.572 2.06392 11.6186 2.17565 11.6186C2.27807 11.6186 2.38049 11.5814 2.46119 11.5069L6.21351 7.99663L7.23151 8.906C7.31221 8.97739 7.41153 9.01153 7.51084 9.01153C7.61016 9.01153 7.71258 8.97428 7.79017 8.9029L8.83611 7.96559L12.5667 11.51C12.6474 11.5876 12.7529 11.6248 12.8554 11.6248C12.9671 11.6248 13.0757 11.5814 13.1595 11.4945C13.3178 11.3269 13.3116 11.0599 13.144 10.9017L9.45994 7.40383Z" fill="#999999"/>
</g>
<defs>
<clipPath id="clip0">
<rect width="15" height="15" fill="white"/>
</clipPath>
</defs>
</svg>
