<svg width="110" height="110" viewBox="0 0 110 110" fill="none" xmlns="http://www.w3.org/2000/svg">
<circle cx="55" cy="55" r="54.5" stroke="#E0E0E0"/>
<circle cx="55" cy="55" r="44.5" stroke="#4985FF"/>
<path d="M74.3333 35H44.3333C43.9652 35 43.6667 35.2985 43.6667 35.6667V45.6666H45V36.3333H73.6666V72.9999C73.673 73.3505 73.4025 73.6442 73.0526 73.6666C72.9953 73.6666 72.938 73.6619 72.8806 73.6606C72.7626 73.6573 72.6446 73.6546 72.5286 73.6426C72.5186 73.6426 72.5093 73.6426 72.4993 73.6386C70.322 73.4006 68.602 71.6823 68.362 69.5053C68.362 69.4959 68.3586 69.4859 68.3573 69.4766C68.3411 69.3182 68.3331 69.1591 68.3333 68.9999V67.6666C68.3333 67.2984 68.0348 66.9999 67.6666 66.9999H45V55H43.6667V66.9999H38.3334C37.9652 66.9999 37.6667 67.2984 37.6667 67.6666V68.9999C37.6704 72.3121 40.3545 74.9963 43.6667 74.9999H73.0666C74.1484 74.9716 75.0083 74.0821 74.9999 72.9999V35.6667C74.9999 35.2985 74.7015 35 74.3333 35ZM43.6667 73.6666C41.0906 73.6637 39.0029 71.576 39 68.9999V68.3333H67V68.9999C67.0009 69.2198 67.0135 69.4394 67.038 69.6579C67.044 69.7159 67.0553 69.7719 67.0633 69.8293C67.0853 69.9906 67.112 70.1513 67.1473 70.3093C67.1593 70.3646 67.1746 70.4193 67.1886 70.4746C67.2293 70.6353 67.2753 70.7933 67.3286 70.9493C67.344 70.9939 67.36 71.0379 67.3766 71.0826C67.4373 71.2479 67.506 71.4093 67.5813 71.5686C67.5973 71.6013 67.612 71.6353 67.628 71.6653C67.7115 71.8342 67.8033 71.9983 67.9033 72.1579C67.9166 72.1793 67.9286 72.2013 67.942 72.2246C68.0506 72.3948 68.168 72.5595 68.2933 72.7179L68.3146 72.7466C68.4601 72.9293 68.616 73.1036 68.7813 73.2686C68.9249 73.4108 69.0737 73.5442 69.228 73.6686L43.6667 73.6666Z" fill="#4985FF"/>
<path d="M57 53.6667C57.1768 53.6667 57.3463 53.5963 57.4713 53.4713L60.1379 50.8047C60.3982 50.5443 60.3982 50.1223 60.1379 49.862L57.4713 47.1953C57.3463 47.0703 57.1768 47 57 47H38.3333C36.4924 47 35 48.4924 35 50.3333C35 52.1742 36.4924 53.6667 38.3333 53.6667H57ZM56.828 48.4373L58.7239 50.3333L56.828 52.2293L56.354 50.3333L56.828 48.4373ZM40.3333 48.3333H55.48L55.1466 49.6667H41.6667V51H55.1466L55.48 52.3333H40.3333V48.3333ZM36.3333 50.3333C36.3333 49.2287 37.2287 48.3333 38.3333 48.3333H39V52.3333H38.3333C37.2287 52.3333 36.3333 51.4379 36.3333 50.3333Z" fill="#4985FF"/>
<path d="M50.3333 63.6666H70.3333C70.7014 63.6666 70.9999 63.3681 70.9999 62.9999V43C70.9999 42.6318 70.7014 42.3334 70.3331 42.3335C70.1564 42.3335 69.9869 42.4037 69.8619 42.5287L49.862 62.5286C49.6016 62.789 49.6017 63.2111 49.8621 63.4714C49.9871 63.5964 50.1566 63.6666 50.3333 63.6666ZM69.6666 44.6093V46.3333H68.3333V47.6666H69.6666V49H68.3333V50.3333H69.6666V51.6666H68.3333V53H69.6666V54.3333H68.3333V55.6666H69.6666V57H68.3333V58.3333H69.6666V59.6666H68.3333V60.9999H69.6666V62.3333H68.3333V60.9999H66.9999V62.3333H65.6666V60.9999H64.3333V62.3333H63V60.9999H61.6666V62.3333H60.3333V60.9999H59V62.3333H57.6666V60.9999H56.3333V62.3333H55V60.9999H53.6666V62.3333H51.9426L69.6666 44.6093Z" fill="#4985FF"/>
<path d="M59.99 59.6666H66.3333C66.7015 59.6666 67 59.3681 67 58.9999V52.6566C66.9999 52.2884 66.7014 51.99 66.3331 51.9901C66.1564 51.9901 65.987 52.0604 65.862 52.1853L59.5186 58.5286C59.2583 58.789 59.2584 59.2111 59.5188 59.4714C59.6438 59.5963 59.8132 59.6666 59.99 59.6666ZM65.6666 54.2666V58.3333H61.6L65.6666 54.2666Z" fill="#4985FF"/>
<path d="M65.6666 39H52.3333V40.3333H65.6666V39Z" fill="#4985FF"/>
<path d="M67.6666 41.6666H50.3333V43H67.6666V41.6666Z" fill="#4985FF"/>
<path d="M50.3333 55.6666H46.3333V57H50.3333V55.6666Z" fill="#4985FF"/>
<path d="M49 58.3333H46.3333V59.6666H49V58.3333Z" fill="#4985FF"/>
</svg>
